{
	"materials":[{
		"pbrMetallicRoughness":{
			"baseColorTexture":{
				"index":0
			},
			"baseColorFactor":[0.8,
			0.8,
			0.8,
			1.0],
			"metallicFactor":0.0,
			"roughnessFactor":0.5
		},
		"emissiveFactor":[0.0,
		0.0,
		0.0],
		"alphaMode":"OPAQUE",
		"doubleSided":false,
		"name":"Mat"
	}],
	"asset":{
		"version":"2.0",
		"generator":"Created using the official Cinema 4D glTF Exporter 1.000x284978"
	},
	"scenes":[{
		"nodes":[0]
	}],
	"nodes":[{
		"name":"Sphere",
		"mesh":0
	}],
	"meshes":[{
		"name":"Sphere",
		"primitives":[{
			"attributes":{
				"POSITION":1,
				"NORMAL":2,
				"TEXCOORD_0":3
			},
			"indices":0,
			"material":0
		}]
	}],
	"accessors":[{
		"bufferView":0,
		"min":[0],
		"type":"SCALAR",
		"componentType":5123,
		"byteOffset":0,
		"count":4560,
		"max":[3119]
	},
	{
		"bufferView":1,
		"min":[-440.6587219238281,
		-431.04608154296877,
		-461.6887512207031],
		"type":"VEC3",
		"componentType":5126,
		"byteOffset":0,
		"count":3120,
		"max":[450.1272277832031,
		435.3763427734375,
		431.18328857421877]
	},
	{
		"bufferView":1,
		"min":[-0.9982515573501587,
		-0.9988994002342224,
		-0.9994504451751709],
		"type":"VEC3",
		"componentType":5126,
		"byteOffset":12,
		"count":3120,
		"max":[0.9952236413955689,
		0.9999663233757019,
		0.9897251725196838]
	},
	{
		"bufferView":1,
		"min":[0.0,
		0.0],
		"type":"VEC2",
		"componentType":5126,
		"byteOffset":24,
		"count":3120,
		"max":[1.0,
		1.0]
	}],
	"bufferViews":[{
		"buffer":0,
		"byteOffset":0,
		"byteLength":9120,
		"target":34963
	},
	{
		"buffer":0,
		"byteOffset":9120,
		"byteLength":99840,
		"target":34962,
		"byteStride":32
	}],
	"buffers":[{
		"uri":"data:application/octet-stream;base64,",
		"byteLength":108960
	}],
	"images":[{
		"uri":"data:image/jpeg;base64,"
	}],
	"samplers":[{
		"magFilter":9729,
		"minFilter":9729,
		"wrapS":10497,
		"wrapT":10497
	}],
	"textures":[{
		"sampler":0,
		"source":0
	}]
}